<svg width="167" height="25" viewBox="0 0 167 25" fill="none" xmlns="http://www.w3.org/2000/svg">
<path d="M12.704 12.128L17.248 2.112H14.016V1.6H20.32V2.112H18.208L13.376 12.8V23.392H15.328V24H5.184V23.392H7.136V13.408L1.696 2.112H0.192V1.6H10.432V2.112H8.352L12.704 12.128ZM37.29 24H29.994L29.642 21.664C29.3007 22.5173 28.7887 23.1787 28.106 23.648C27.4447 24.096 26.4527 24.32 25.13 24.32C21.8233 24.32 20.17 22.5387 20.17 18.976V9.344H18.378V8.768H26.122V19.744C26.122 21.024 26.2073 21.8667 26.378 22.272C26.57 22.6773 26.9327 22.88 27.466 22.88C28.0207 22.88 28.5113 22.5493 28.938 21.888C29.3647 21.2267 29.578 20.3093 29.578 19.136V9.344H28.106V8.768H35.53V23.424H37.29V24ZM37.945 8.768H45.657V11.712C46.361 9.536 47.9077 8.448 50.297 8.448C52.7077 8.448 54.169 9.6 54.681 11.904C55.4277 9.6 56.9957 8.448 59.385 8.448C62.521 8.448 64.089 10.2293 64.089 13.792V23.424H65.881V24H57.017V23.424H58.137V13.024C58.137 11.4027 57.9983 10.4533 57.721 10.176C57.593 10.048 57.4223 9.984 57.209 9.984C56.5903 9.984 56.0463 10.4 55.577 11.232C55.1077 12.064 54.873 13.12 54.873 14.4V23.424H56.025V24H47.801V23.424H48.921V13.024C48.921 11.4027 48.7823 10.4533 48.505 10.176C48.377 10.048 48.2063 9.984 47.993 9.984C47.3957 9.984 46.8517 10.4427 46.361 11.36C45.8917 12.256 45.657 13.3333 45.657 14.592V23.424H46.809V24H37.945V23.424H39.705V9.344H37.945V8.768ZM66.7033 1.6H76.6873V2.208H74.8313V12.128H81.1993V2.208H79.3113V1.6H89.3273V2.208H87.4393V23.392H89.3273V24H79.3113V23.392H81.1993V12.96H74.8313V23.392H76.6873V24H66.7033V23.392H68.5913V2.208H66.7033V1.6ZM98.736 24.32C95.984 24.32 93.9147 23.616 92.528 22.208C91.1627 20.7787 90.48 18.8053 90.48 16.288C90.48 13.7493 91.248 11.808 92.784 10.464C94.3413 9.12 96.3147 8.448 98.704 8.448C103.547 8.448 105.872 10.88 105.68 15.744H96.656V16.992C96.656 19.0827 96.9227 20.6613 97.456 21.728C97.9893 22.7947 98.9173 23.328 100.24 23.328C102.715 23.328 104.336 22.0053 105.104 19.36L105.68 19.456C105.275 20.992 104.539 22.1867 103.472 23.04C102.427 23.8933 100.848 24.32 98.736 24.32ZM96.688 15.104H99.984V13.536C99.984 11.808 99.8773 10.6347 99.664 10.016C99.472 9.376 99.0667 9.056 98.448 9.056C97.8507 9.056 97.4027 9.39733 97.104 10.08C96.8267 10.7413 96.688 11.8933 96.688 13.536V15.104ZM114.5 16.48H115.428V14.016C115.428 11.9893 115.311 10.6347 115.076 9.952C114.863 9.248 114.436 8.896 113.796 8.896C113.412 8.896 113.06 9.00267 112.74 9.216C112.441 9.408 112.292 9.68533 112.292 10.048C112.292 10.3893 112.356 10.7413 112.484 11.104H113.284C113.455 11.552 113.54 12.096 113.54 12.736C113.54 13.3547 113.273 13.8987 112.74 14.368C112.207 14.816 111.535 15.04 110.724 15.04C108.889 15.04 107.972 14.1547 107.972 12.384C107.972 9.76 110.201 8.448 114.66 8.448C117.199 8.448 118.948 8.88533 119.908 9.76C120.889 10.6133 121.38 12.192 121.38 14.496V20.992C121.38 22.1013 121.689 22.656 122.308 22.656C123.033 22.656 123.46 21.5573 123.588 19.36L124.068 19.392C123.983 21.2693 123.631 22.56 123.012 23.264C122.393 23.968 121.38 24.32 119.972 24.32C117.412 24.32 115.94 23.5307 115.556 21.952C115.279 22.7627 114.863 23.36 114.308 23.744C113.753 24.128 112.943 24.32 111.876 24.32C108.719 24.32 107.14 23.0293 107.14 20.448C107.14 18.9333 107.737 17.8987 108.932 17.344C110.148 16.768 112.004 16.48 114.5 16.48ZM113.22 20.416C113.22 21.5253 113.273 22.24 113.38 22.56C113.508 22.88 113.732 23.04 114.052 23.04C114.393 23.04 114.703 22.7733 114.98 22.24C115.279 21.6853 115.428 20.928 115.428 19.968V16.992H115.204C113.881 16.992 113.22 17.9627 113.22 19.904V20.416ZM124.255 -1.90735e-06H132.095V23.424H133.887V24H124.383V23.424H126.143V0.575998H124.255V-1.90735e-06ZM136.108 19.424V9.344H134.348V8.768H136.108V4.64L142.06 3.168V8.768H146.22V9.344H142.06V20.128C142.06 21.1307 142.156 21.8667 142.348 22.336C142.561 22.8053 142.988 23.04 143.628 23.04C144.268 23.04 144.822 22.72 145.292 22.08C145.782 21.44 146.102 20.5653 146.252 19.456L146.796 19.52C146.625 20.992 146.156 22.1653 145.388 23.04C144.62 23.8933 143.35 24.32 141.58 24.32C139.809 24.32 138.454 23.968 137.516 23.264C136.577 22.56 136.108 21.28 136.108 19.424ZM147.101 -1.90735e-06H154.813V11.712C155.155 10.7307 155.677 9.94133 156.381 9.344C157.085 8.74667 158.152 8.448 159.581 8.448C162.888 8.448 164.541 10.2293 164.541 13.792V23.424H166.333V24H157.277V23.424H158.589V13.024C158.589 11.744 158.504 10.9227 158.333 10.56C158.163 10.176 157.853 9.984 157.405 9.984C156.723 9.984 156.115 10.432 155.581 11.328C155.069 12.224 154.813 13.312 154.813 14.592V23.424H156.189V24H147.101V23.424H148.861V0.575998H147.101V-1.90735e-06Z" fill="#F9F5F2"/>
</svg>
