<svg width="333" height="49" viewBox="0 0 333 49" fill="none" xmlns="http://www.w3.org/2000/svg">
<mask id="path-1-outside-1_51_145" maskUnits="userSpaceOnUse" x="-1" y="-1" width="335" height="51" fill="black">
<rect fill="white" x="-1" y="-1" width="335" height="51"/>
<path d="M25.408 24.256L34.496 4.224H28.032V3.2H40.64V4.224H36.416L26.752 25.6V46.784H30.656V48H10.368V46.784H14.272V26.816L3.392 4.224H0.384V3.2H20.864V4.224H16.704L25.408 24.256ZM74.58 48H59.988L59.284 43.328C58.6013 45.0347 57.5773 46.3573 56.212 47.296C54.8893 48.192 52.9053 48.64 50.26 48.64C43.6467 48.64 40.34 45.0773 40.34 37.952V18.688H36.756V17.536H52.244V39.488C52.244 42.048 52.4147 43.7333 52.756 44.544C53.14 45.3547 53.8653 45.76 54.932 45.76C56.0413 45.76 57.0227 45.0987 57.876 43.776C58.7293 42.4533 59.156 40.6187 59.156 38.272V18.688H56.212V17.536H71.06V46.848H74.58V48ZM75.89 17.536H91.314V23.424C92.722 19.072 95.8153 16.896 100.594 16.896C105.415 16.896 108.338 19.2 109.362 23.808C110.855 19.2 113.991 16.896 118.77 16.896C125.042 16.896 128.178 20.4587 128.178 27.584V46.848H131.762V48H114.034V46.848H116.274V26.048C116.274 22.8053 115.997 20.9067 115.442 20.352C115.186 20.096 114.845 19.968 114.418 19.968C113.181 19.968 112.093 20.8 111.154 22.464C110.215 24.128 109.746 26.24 109.746 28.8V46.848H112.05V48H95.602V46.848H97.842V26.048C97.842 22.8053 97.5647 20.9067 97.01 20.352C96.754 20.096 96.4127 19.968 95.986 19.968C94.7913 19.968 93.7033 20.8853 92.722 22.72C91.7833 24.512 91.314 26.6667 91.314 29.184V46.848H93.618V48H75.89V46.848H79.41V18.688H75.89V17.536ZM133.407 3.2H153.375V4.416H149.663V24.256H162.399V4.416H158.623V3.2H178.655V4.416H174.879V46.784H178.655V48H158.623V46.784H162.399V25.92H149.663V46.784H153.375V48H133.407V46.784H137.183V4.416H133.407V3.2ZM197.472 48.64C191.968 48.64 187.829 47.232 185.056 44.416C182.325 41.5573 180.96 37.6107 180.96 32.576C180.96 27.4987 182.496 23.616 185.568 20.928C188.683 18.24 192.629 16.896 197.408 16.896C207.093 16.896 211.744 21.76 211.36 31.488H193.312V33.984C193.312 38.1653 193.845 41.3227 194.912 43.456C195.979 45.5893 197.835 46.656 200.48 46.656C205.429 46.656 208.672 44.0107 210.208 38.72L211.36 38.912C210.549 41.984 209.077 44.3733 206.944 46.08C204.853 47.7867 201.696 48.64 197.472 48.64ZM193.376 30.208H199.968V27.072C199.968 23.616 199.755 21.2693 199.328 20.032C198.944 18.752 198.133 18.112 196.896 18.112C195.701 18.112 194.805 18.7947 194.208 20.16C193.653 21.4827 193.376 23.7867 193.376 27.072V30.208ZM229 32.96H230.856V28.032C230.856 23.9787 230.621 21.2693 230.152 19.904C229.725 18.496 228.872 17.792 227.592 17.792C226.824 17.792 226.12 18.0053 225.48 18.432C224.883 18.816 224.584 19.3707 224.584 20.096C224.584 20.7787 224.712 21.4827 224.968 22.208H226.568C226.909 23.104 227.08 24.192 227.08 25.472C227.08 26.7093 226.547 27.7973 225.48 28.736C224.413 29.632 223.069 30.08 221.448 30.08C217.779 30.08 215.944 28.3093 215.944 24.768C215.944 19.52 220.403 16.896 229.32 16.896C234.397 16.896 237.896 17.7707 239.816 19.52C241.779 21.2267 242.76 24.384 242.76 28.992V41.984C242.76 44.2027 243.379 45.312 244.616 45.312C246.067 45.312 246.92 43.1147 247.176 38.72L248.136 38.784C247.965 42.5387 247.261 45.12 246.024 46.528C244.787 47.936 242.76 48.64 239.944 48.64C234.824 48.64 231.88 47.0613 231.112 43.904C230.557 45.5253 229.725 46.72 228.616 47.488C227.507 48.256 225.885 48.64 223.752 48.64C217.437 48.64 214.28 46.0587 214.28 40.896C214.28 37.8667 215.475 35.7973 217.864 34.688C220.296 33.536 224.008 32.96 229 32.96ZM226.44 40.832C226.44 43.0507 226.547 44.48 226.76 45.12C227.016 45.76 227.464 46.08 228.104 46.08C228.787 46.08 229.405 45.5467 229.96 44.48C230.557 43.3707 230.856 41.856 230.856 39.936V33.984H230.408C227.763 33.984 226.44 35.9253 226.44 39.808V40.832ZM248.509 -3.8147e-06H264.189V46.848H267.773V48H248.765V46.848H252.285V1.152H248.509V-3.8147e-06ZM272.215 38.848V18.688H268.695V17.536H272.215V9.28L284.119 6.336V17.536H292.439V18.688H284.119V40.256C284.119 42.2613 284.311 43.7333 284.695 44.672C285.122 45.6107 285.975 46.08 287.255 46.08C288.535 46.08 289.644 45.44 290.583 44.16C291.564 42.88 292.204 41.1307 292.503 38.912L293.591 39.04C293.25 41.984 292.311 44.3307 290.775 46.08C289.239 47.7867 286.7 48.64 283.159 48.64C279.618 48.64 276.908 47.936 275.031 46.528C273.154 45.12 272.215 42.56 272.215 38.848ZM294.203 -3.8147e-06H309.627V23.424C310.309 21.4613 311.355 19.8827 312.763 18.688C314.171 17.4933 316.304 16.896 319.163 16.896C325.776 16.896 329.083 20.4587 329.083 27.584V46.848H332.667V48H314.555V46.848H317.179V26.048C317.179 23.488 317.008 21.8453 316.667 21.12C316.325 20.352 315.707 19.968 314.811 19.968C313.445 19.968 312.229 20.864 311.163 22.656C310.139 24.448 309.627 26.624 309.627 29.184V46.848H312.378V48H294.203V46.848H297.723V1.152H294.203V-3.8147e-06Z"/>
</mask>
<path d="M25.408 24.256L34.496 4.224H28.032V3.2H40.64V4.224H36.416L26.752 25.6V46.784H30.656V48H10.368V46.784H14.272V26.816L3.392 4.224H0.384V3.2H20.864V4.224H16.704L25.408 24.256ZM74.58 48H59.988L59.284 43.328C58.6013 45.0347 57.5773 46.3573 56.212 47.296C54.8893 48.192 52.9053 48.64 50.26 48.64C43.6467 48.64 40.34 45.0773 40.34 37.952V18.688H36.756V17.536H52.244V39.488C52.244 42.048 52.4147 43.7333 52.756 44.544C53.14 45.3547 53.8653 45.76 54.932 45.76C56.0413 45.76 57.0227 45.0987 57.876 43.776C58.7293 42.4533 59.156 40.6187 59.156 38.272V18.688H56.212V17.536H71.06V46.848H74.58V48ZM75.89 17.536H91.314V23.424C92.722 19.072 95.8153 16.896 100.594 16.896C105.415 16.896 108.338 19.2 109.362 23.808C110.855 19.2 113.991 16.896 118.77 16.896C125.042 16.896 128.178 20.4587 128.178 27.584V46.848H131.762V48H114.034V46.848H116.274V26.048C116.274 22.8053 115.997 20.9067 115.442 20.352C115.186 20.096 114.845 19.968 114.418 19.968C113.181 19.968 112.093 20.8 111.154 22.464C110.215 24.128 109.746 26.24 109.746 28.8V46.848H112.05V48H95.602V46.848H97.842V26.048C97.842 22.8053 97.5647 20.9067 97.01 20.352C96.754 20.096 96.4127 19.968 95.986 19.968C94.7913 19.968 93.7033 20.8853 92.722 22.72C91.7833 24.512 91.314 26.6667 91.314 29.184V46.848H93.618V48H75.89V46.848H79.41V18.688H75.89V17.536ZM133.407 3.2H153.375V4.416H149.663V24.256H162.399V4.416H158.623V3.2H178.655V4.416H174.879V46.784H178.655V48H158.623V46.784H162.399V25.92H149.663V46.784H153.375V48H133.407V46.784H137.183V4.416H133.407V3.2ZM197.472 48.64C191.968 48.64 187.829 47.232 185.056 44.416C182.325 41.5573 180.96 37.6107 180.96 32.576C180.96 27.4987 182.496 23.616 185.568 20.928C188.683 18.24 192.629 16.896 197.408 16.896C207.093 16.896 211.744 21.76 211.36 31.488H193.312V33.984C193.312 38.1653 193.845 41.3227 194.912 43.456C195.979 45.5893 197.835 46.656 200.48 46.656C205.429 46.656 208.672 44.0107 210.208 38.72L211.36 38.912C210.549 41.984 209.077 44.3733 206.944 46.08C204.853 47.7867 201.696 48.64 197.472 48.64ZM193.376 30.208H199.968V27.072C199.968 23.616 199.755 21.2693 199.328 20.032C198.944 18.752 198.133 18.112 196.896 18.112C195.701 18.112 194.805 18.7947 194.208 20.16C193.653 21.4827 193.376 23.7867 193.376 27.072V30.208ZM229 32.96H230.856V28.032C230.856 23.9787 230.621 21.2693 230.152 19.904C229.725 18.496 228.872 17.792 227.592 17.792C226.824 17.792 226.12 18.0053 225.48 18.432C224.883 18.816 224.584 19.3707 224.584 20.096C224.584 20.7787 224.712 21.4827 224.968 22.208H226.568C226.909 23.104 227.08 24.192 227.08 25.472C227.08 26.7093 226.547 27.7973 225.48 28.736C224.413 29.632 223.069 30.08 221.448 30.08C217.779 30.08 215.944 28.3093 215.944 24.768C215.944 19.52 220.403 16.896 229.32 16.896C234.397 16.896 237.896 17.7707 239.816 19.52C241.779 21.2267 242.76 24.384 242.76 28.992V41.984C242.76 44.2027 243.379 45.312 244.616 45.312C246.067 45.312 246.92 43.1147 247.176 38.72L248.136 38.784C247.965 42.5387 247.261 45.12 246.024 46.528C244.787 47.936 242.76 48.64 239.944 48.64C234.824 48.64 231.88 47.0613 231.112 43.904C230.557 45.5253 229.725 46.72 228.616 47.488C227.507 48.256 225.885 48.64 223.752 48.64C217.437 48.64 214.28 46.0587 214.28 40.896C214.28 37.8667 215.475 35.7973 217.864 34.688C220.296 33.536 224.008 32.96 229 32.96ZM226.44 40.832C226.44 43.0507 226.547 44.48 226.76 45.12C227.016 45.76 227.464 46.08 228.104 46.08C228.787 46.08 229.405 45.5467 229.96 44.48C230.557 43.3707 230.856 41.856 230.856 39.936V33.984H230.408C227.763 33.984 226.44 35.9253 226.44 39.808V40.832ZM248.509 -3.8147e-06H264.189V46.848H267.773V48H248.765V46.848H252.285V1.152H248.509V-3.8147e-06ZM272.215 38.848V18.688H268.695V17.536H272.215V9.28L284.119 6.336V17.536H292.439V18.688H284.119V40.256C284.119 42.2613 284.311 43.7333 284.695 44.672C285.122 45.6107 285.975 46.08 287.255 46.08C288.535 46.08 289.644 45.44 290.583 44.16C291.564 42.88 292.204 41.1307 292.503 38.912L293.591 39.04C293.25 41.984 292.311 44.3307 290.775 46.08C289.239 47.7867 286.7 48.64 283.159 48.64C279.618 48.64 276.908 47.936 275.031 46.528C273.154 45.12 272.215 42.56 272.215 38.848ZM294.203 -3.8147e-06H309.627V23.424C310.309 21.4613 311.355 19.8827 312.763 18.688C314.171 17.4933 316.304 16.896 319.163 16.896C325.776 16.896 329.083 20.4587 329.083 27.584V46.848H332.667V48H314.555V46.848H317.179V26.048C317.179 23.488 317.008 21.8453 316.667 21.12C316.325 20.352 315.707 19.968 314.811 19.968C313.445 19.968 312.229 20.864 311.163 22.656C310.139 24.448 309.627 26.624 309.627 29.184V46.848H312.378V48H294.203V46.848H297.723V1.152H294.203V-3.8147e-06Z" fill="#333333"/>
<path d="M25.408 24.256L24.4908 24.6545L25.3883 26.7199L26.3187 24.6691L25.408 24.256ZM34.496 4.224L35.4067 4.63714L36.0478 3.224H34.496V4.224ZM28.032 4.224H27.032V5.224H28.032V4.224ZM28.032 3.2V2.2H27.032V3.2H28.032ZM40.64 3.2H41.64V2.2H40.64V3.2ZM40.64 4.224V5.224H41.64V4.224H40.64ZM36.416 4.224V3.224H35.7706L35.5048 3.81205L36.416 4.224ZM26.752 25.6L25.8408 25.188L25.752 25.3845V25.6H26.752ZM26.752 46.784H25.752V47.784H26.752V46.784ZM30.656 46.784H31.656V45.784H30.656V46.784ZM30.656 48V49H31.656V48H30.656ZM10.368 48H9.368V49H10.368V48ZM10.368 46.784V45.784H9.368V46.784H10.368ZM14.272 46.784V47.784H15.272V46.784H14.272ZM14.272 26.816H15.272V26.5877L15.173 26.3821L14.272 26.816ZM3.392 4.224L4.29296 3.79011L4.02034 3.224H3.392V4.224ZM0.384 4.224H-0.616V5.224H0.384V4.224ZM0.384 3.2V2.2H-0.616V3.2H0.384ZM20.864 3.2H21.864V2.2H20.864V3.2ZM20.864 4.224V5.224H21.864V4.224H20.864ZM16.704 4.224V3.224H15.1792L15.7868 4.62251L16.704 4.224ZM26.3187 24.6691L35.4067 4.63714L33.5853 3.81085L24.4973 23.8429L26.3187 24.6691ZM34.496 3.224H28.032V5.224H34.496V3.224ZM29.032 4.224V3.2H27.032V4.224H29.032ZM28.032 4.2H40.64V2.2H28.032V4.2ZM39.64 3.2V4.224H41.64V3.2H39.64ZM40.64 3.224H36.416V5.224H40.64V3.224ZM35.5048 3.81205L25.8408 25.188L27.6632 26.012L37.3272 4.63595L35.5048 3.81205ZM25.752 25.6V46.784H27.752V25.6H25.752ZM26.752 47.784H30.656V45.784H26.752V47.784ZM29.656 46.784V48H31.656V46.784H29.656ZM30.656 47H10.368V49H30.656V47ZM11.368 48V46.784H9.368V48H11.368ZM10.368 47.784H14.272V45.784H10.368V47.784ZM15.272 46.784V26.816H13.272V46.784H15.272ZM15.173 26.3821L4.29296 3.79011L2.49104 4.65789L13.371 27.2499L15.173 26.3821ZM3.392 3.224H0.384V5.224H3.392V3.224ZM1.384 4.224V3.2H-0.616V4.224H1.384ZM0.384 4.2H20.864V2.2H0.384V4.2ZM19.864 3.2V4.224H21.864V3.2H19.864ZM20.864 3.224H16.704V5.224H20.864V3.224ZM15.7868 4.62251L24.4908 24.6545L26.3252 23.8575L17.6212 3.82549L15.7868 4.62251ZM74.58 48V49H75.58V48H74.58ZM59.988 48L58.9992 48.149L59.1274 49H59.988V48ZM59.284 43.328L60.2728 43.179L59.7239 39.5358L58.3555 42.9566L59.284 43.328ZM56.212 47.296L56.7729 48.1239L56.7785 48.12L56.212 47.296ZM40.34 18.688H41.34V17.688H40.34V18.688ZM36.756 18.688H35.756V19.688H36.756V18.688ZM36.756 17.536V16.536H35.756V17.536H36.756ZM52.244 17.536H53.244V16.536H52.244V17.536ZM52.756 44.544L51.8344 44.9321L51.8429 44.9523L51.8523 44.9721L52.756 44.544ZM57.876 43.776L58.7163 44.3181V44.3181L57.876 43.776ZM59.156 18.688H60.156V17.688H59.156V18.688ZM56.212 18.688H55.212V19.688H56.212V18.688ZM56.212 17.536V16.536H55.212V17.536H56.212ZM71.06 17.536H72.06V16.536H71.06V17.536ZM71.06 46.848H70.06V47.848H71.06V46.848ZM74.58 46.848H75.58V45.848H74.58V46.848ZM74.58 47H59.988V49H74.58V47ZM60.9768 47.851L60.2728 43.179L58.2952 43.477L58.9992 48.149L60.9768 47.851ZM58.3555 42.9566C57.7378 44.5008 56.8306 45.6572 55.6455 46.472L56.7785 48.12C58.3241 47.0575 59.4648 45.5685 60.2125 43.6994L58.3555 42.9566ZM55.6512 46.4681C54.5705 47.2001 52.8237 47.64 50.26 47.64V49.64C52.9869 49.64 55.2082 49.1839 56.7729 48.1239L55.6512 46.4681ZM50.26 47.64C47.1274 47.64 44.9563 46.7997 43.553 45.2877C42.1365 43.7617 41.34 41.3783 41.34 37.952H39.34C39.34 41.6511 40.1968 44.6117 42.0871 46.6483C43.9904 48.699 46.7793 49.64 50.26 49.64V47.64ZM41.34 37.952V18.688H39.34V37.952H41.34ZM40.34 17.688H36.756V19.688H40.34V17.688ZM37.756 18.688V17.536H35.756V18.688H37.756ZM36.756 18.536H52.244V16.536H36.756V18.536ZM51.244 17.536V39.488H53.244V17.536H51.244ZM51.244 39.488C51.244 40.7865 51.2871 41.8843 51.3771 42.7728C51.465 43.6407 51.6043 44.3856 51.8344 44.9321L53.6776 44.1559C53.5664 43.8918 53.4497 43.3886 53.3669 42.5713C53.2862 41.7743 53.244 40.7495 53.244 39.488H51.244ZM51.8523 44.9721C52.1258 45.5496 52.5413 46.0166 53.1002 46.3289C53.6484 46.6353 54.2752 46.76 54.932 46.76V44.76C54.5221 44.76 54.2529 44.682 54.0758 44.5831C53.9093 44.49 53.7702 44.3491 53.6597 44.1159L51.8523 44.9721ZM54.932 46.76C56.5113 46.76 57.7628 45.796 58.7163 44.3181L57.0357 43.2339C56.2825 44.4013 55.5713 44.76 54.932 44.76V46.76ZM58.7163 44.3181C59.7133 42.7728 60.156 40.7225 60.156 38.272H58.156C58.156 40.5148 57.7454 42.1338 57.0357 43.2339L58.7163 44.3181ZM60.156 38.272V18.688H58.156V38.272H60.156ZM59.156 17.688H56.212V19.688H59.156V17.688ZM57.212 18.688V17.536H55.212V18.688H57.212ZM56.212 18.536H71.06V16.536H56.212V18.536ZM70.06 17.536V46.848H72.06V17.536H70.06ZM71.06 47.848H74.58V45.848H71.06V47.848ZM73.58 46.848V48H75.58V46.848H73.58ZM75.89 17.536V16.536H74.89V17.536H75.89ZM91.314 17.536H92.314V16.536H91.314V17.536ZM91.314 23.424H90.314L92.2654 23.7318L91.314 23.424ZM109.362 23.808L108.386 24.0249L109.182 27.6074L110.313 24.1163L109.362 23.808ZM128.178 46.848H127.178V47.848H128.178V46.848ZM131.762 46.848H132.762V45.848H131.762V46.848ZM131.762 48V49H132.762V48H131.762ZM114.034 48H113.034V49H114.034V48ZM114.034 46.848V45.848H113.034V46.848H114.034ZM116.274 46.848V47.848H117.274V46.848H116.274ZM115.442 20.352L114.735 21.0591V21.0591L115.442 20.352ZM111.154 22.464L112.025 22.9553L111.154 22.464ZM109.746 46.848H108.746V47.848H109.746V46.848ZM112.05 46.848H113.05V45.848H112.05V46.848ZM112.05 48V49H113.05V48H112.05ZM95.602 48H94.602V49H95.602V48ZM95.602 46.848V45.848H94.602V46.848H95.602ZM97.842 46.848V47.848H98.842V46.848H97.842ZM97.01 20.352L96.3029 21.0591V21.0591L97.01 20.352ZM92.722 22.72L91.8402 22.2483L91.8362 22.256L92.722 22.72ZM91.314 46.848H90.314V47.848H91.314V46.848ZM93.618 46.848H94.618V45.848H93.618V46.848ZM93.618 48V49H94.618V48H93.618ZM75.89 48H74.89V49H75.89V48ZM75.89 46.848V45.848H74.89V46.848H75.89ZM79.41 46.848V47.848H80.41V46.848H79.41ZM79.41 18.688H80.41V17.688H79.41V18.688ZM75.89 18.688H74.89V19.688H75.89V18.688ZM75.89 18.536H91.314V16.536H75.89V18.536ZM90.314 17.536V23.424H92.314V17.536H90.314ZM92.2654 23.7318C92.917 21.7178 93.9307 20.2848 95.2654 19.3459C96.6039 18.4043 98.3561 17.896 100.594 17.896V15.896C98.0532 15.896 95.8694 16.4757 94.1146 17.7101C92.356 18.9472 91.119 20.7782 90.3626 23.1162L92.2654 23.7318ZM100.594 17.896C102.847 17.896 104.544 18.4328 105.783 19.4093C107.019 20.3839 107.91 21.8842 108.386 24.0249L110.338 23.5911C109.79 21.1238 108.707 19.1681 107.021 17.8387C105.337 16.5112 103.162 15.896 100.594 15.896V17.896ZM110.313 24.1163C111.011 21.9623 112.065 20.4302 113.426 19.4299C114.786 18.4304 116.544 17.896 118.77 17.896V15.896C116.217 15.896 114.018 16.5136 112.242 17.8181C110.467 19.1218 109.206 21.0457 108.411 23.4997L110.313 24.1163ZM118.77 17.896C121.716 17.896 123.753 18.7269 125.075 20.2287C126.419 21.7549 127.178 24.1463 127.178 27.584H129.178C129.178 23.8963 128.369 20.9438 126.577 18.9073C124.763 16.8464 122.096 15.896 118.77 15.896V17.896ZM127.178 27.584V46.848H129.178V27.584H127.178ZM128.178 47.848H131.762V45.848H128.178V47.848ZM130.762 46.848V48H132.762V46.848H130.762ZM131.762 47H114.034V49H131.762V47ZM115.034 48V46.848H113.034V48H115.034ZM114.034 47.848H116.274V45.848H114.034V47.848ZM117.274 46.848V26.048H115.274V46.848H117.274ZM117.274 26.048C117.274 24.4064 117.204 23.0661 117.056 22.0475C116.981 21.5385 116.883 21.0832 116.753 20.6988C116.628 20.3301 116.445 19.9407 116.149 19.6449L114.735 21.0591C114.716 21.0406 114.776 21.0966 114.859 21.3412C114.937 21.5701 115.012 21.8962 115.076 22.3365C115.205 23.2165 115.274 24.4469 115.274 26.048H117.274ZM116.149 19.6449C115.672 19.1682 115.059 18.968 114.418 18.968V20.968C114.63 20.968 114.7 21.0238 114.735 21.0591L116.149 19.6449ZM114.418 18.968C112.649 18.968 111.295 20.1788 110.283 21.9727L112.025 22.9553C112.89 21.4212 113.712 20.968 114.418 20.968V18.968ZM110.283 21.9727C109.236 23.8291 108.746 26.1242 108.746 28.8H110.746C110.746 26.3558 111.195 24.4269 112.025 22.9553L110.283 21.9727ZM108.746 28.8V46.848H110.746V28.8H108.746ZM109.746 47.848H112.05V45.848H109.746V47.848ZM111.05 46.848V48H113.05V46.848H111.05ZM112.05 47H95.602V49H112.05V47ZM96.602 48V46.848H94.602V48H96.602ZM95.602 47.848H97.842V45.848H95.602V47.848ZM98.842 46.848V26.048H96.842V46.848H98.842ZM98.842 26.048C98.842 24.4064 98.7723 23.0661 98.6235 22.0475C98.5492 21.5385 98.4514 21.0832 98.321 20.6988C98.196 20.3301 98.0129 19.9407 97.7171 19.6449L96.3029 21.0591C96.2844 21.0406 96.344 21.0966 96.427 21.3412C96.5046 21.5701 96.5802 21.8962 96.6445 22.3365C96.773 23.2165 96.842 24.4469 96.842 26.048H98.842ZM97.7171 19.6449C97.2404 19.1682 96.6269 18.968 95.986 18.968V20.968C96.1984 20.968 96.2676 21.0238 96.3029 21.0591L97.7171 19.6449ZM95.986 18.968C94.2072 18.968 92.8625 20.3372 91.8402 22.2483L93.6038 23.1917C94.5442 21.4335 95.3755 20.968 95.986 20.968V18.968ZM91.8362 22.256C90.8064 24.222 90.314 26.5438 90.314 29.184H92.314C92.314 26.7895 92.7603 24.802 93.6078 23.184L91.8362 22.256ZM90.314 29.184V46.848H92.314V29.184H90.314ZM91.314 47.848H93.618V45.848H91.314V47.848ZM92.618 46.848V48H94.618V46.848H92.618ZM93.618 47H75.89V49H93.618V47ZM76.89 48V46.848H74.89V48H76.89ZM75.89 47.848H79.41V45.848H75.89V47.848ZM80.41 46.848V18.688H78.41V46.848H80.41ZM79.41 17.688H75.89V19.688H79.41V17.688ZM76.89 18.688V17.536H74.89V18.688H76.89ZM133.406 3.2V2.2H132.406V3.2H133.406ZM153.374 3.2H154.374V2.2H153.374V3.2ZM153.374 4.416V5.416H154.374V4.416H153.374ZM149.663 4.416V3.416H148.663V4.416H149.663ZM149.663 24.256H148.663V25.256H149.663V24.256ZM162.398 24.256V25.256H163.398V24.256H162.398ZM162.398 4.416H163.398V3.416H162.398V4.416ZM158.622 4.416H157.622V5.416H158.622V4.416ZM158.622 3.2V2.2H157.622V3.2H158.622ZM178.655 3.2H179.655V2.2H178.655V3.2ZM178.655 4.416V5.416H179.655V4.416H178.655ZM174.879 4.416V3.416H173.879V4.416H174.879ZM174.879 46.784H173.879V47.784H174.879V46.784ZM178.655 46.784H179.655V45.784H178.655V46.784ZM178.655 48V49H179.655V48H178.655ZM158.622 48H157.622V49H158.622V48ZM158.622 46.784V45.784H157.622V46.784H158.622ZM162.398 46.784V47.784H163.398V46.784H162.398ZM162.398 25.92H163.398V24.92H162.398V25.92ZM149.663 25.92V24.92H148.663V25.92H149.663ZM149.663 46.784H148.663V47.784H149.663V46.784ZM153.374 46.784H154.374V45.784H153.374V46.784ZM153.374 48V49H154.374V48H153.374ZM133.406 48H132.406V49H133.406V48ZM133.406 46.784V45.784H132.406V46.784H133.406ZM137.182 46.784V47.784H138.182V46.784H137.182ZM137.182 4.416H138.182V3.416H137.182V4.416ZM133.406 4.416H132.406V5.416H133.406V4.416ZM133.406 4.2H153.374V2.2H133.406V4.2ZM152.374 3.2V4.416H154.374V3.2H152.374ZM153.374 3.416H149.663V5.416H153.374V3.416ZM148.663 4.416V24.256H150.663V4.416H148.663ZM149.663 25.256H162.398V23.256H149.663V25.256ZM163.398 24.256V4.416H161.398V24.256H163.398ZM162.398 3.416H158.622V5.416H162.398V3.416ZM159.622 4.416V3.2H157.622V4.416H159.622ZM158.622 4.2H178.655V2.2H158.622V4.2ZM177.655 3.2V4.416H179.655V3.2H177.655ZM178.655 3.416H174.879V5.416H178.655V3.416ZM173.879 4.416V46.784H175.879V4.416H173.879ZM174.879 47.784H178.655V45.784H174.879V47.784ZM177.655 46.784V48H179.655V46.784H177.655ZM178.655 47H158.622V49H178.655V47ZM159.622 48V46.784H157.622V48H159.622ZM158.622 47.784H162.398V45.784H158.622V47.784ZM163.398 46.784V25.92H161.398V46.784H163.398ZM162.398 24.92H149.663V26.92H162.398V24.92ZM148.663 25.92V46.784H150.663V25.92H148.663ZM149.663 47.784H153.374V45.784H149.663V47.784ZM152.374 46.784V48H154.374V46.784H152.374ZM153.374 47H133.406V49H153.374V47ZM134.406 48V46.784H132.406V48H134.406ZM133.406 47.784H137.182V45.784H133.406V47.784ZM138.182 46.784V4.416H136.182V46.784H138.182ZM137.182 3.416H133.406V5.416H137.182V3.416ZM134.406 4.416V3.2H132.406V4.416H134.406ZM185.056 44.416L184.333 45.1067L184.338 45.1123L184.344 45.1177L185.056 44.416ZM185.568 20.928L184.915 20.1709L184.91 20.1754L185.568 20.928ZM211.36 31.488V32.488H212.321L212.359 31.5274L211.36 31.488ZM193.312 31.488V30.488H192.312V31.488H193.312ZM194.912 43.456L194.018 43.9032L194.912 43.456ZM210.208 38.72L210.372 37.7336L209.496 37.5875L209.248 38.4412L210.208 38.72ZM211.36 38.912L212.327 39.1672L212.607 38.106L211.524 37.9256L211.36 38.912ZM206.944 46.08L206.319 45.2991L206.312 45.3053L206.944 46.08ZM193.376 30.208H192.376V31.208H193.376V30.208ZM199.968 30.208V31.208H200.968V30.208H199.968ZM199.328 20.032L198.37 20.3193L198.376 20.3388L198.383 20.358L199.328 20.032ZM194.208 20.16L193.292 19.7592L193.289 19.7662L193.286 19.7733L194.208 20.16ZM197.472 47.64C192.129 47.64 188.29 46.2747 185.768 43.7143L184.344 45.1177C187.369 48.1893 191.807 49.64 197.472 49.64V47.64ZM185.779 43.7253C183.271 41.0997 181.96 37.4267 181.96 32.576H179.96C179.96 37.7946 181.38 42.015 184.333 45.1067L185.779 43.7253ZM181.96 32.576C181.96 27.711 183.423 24.1338 186.227 21.6806L184.91 20.1754C181.569 23.0982 179.96 27.2863 179.96 32.576H181.96ZM186.221 21.6851C189.126 19.1786 192.828 17.896 197.408 17.896V15.896C192.43 15.896 188.24 17.3014 184.915 20.1709L186.221 21.6851ZM197.408 17.896C202.099 17.896 205.371 19.0736 207.437 21.2351C209.505 23.3976 210.547 26.7335 210.361 31.4486L212.359 31.5274C212.557 26.5145 211.466 22.5544 208.883 19.8529C206.299 17.1504 202.402 15.896 197.408 15.896V17.896ZM211.36 30.488H193.312V32.488H211.36V30.488ZM192.312 31.488V33.984H194.312V31.488H192.312ZM192.312 33.984C192.312 38.2202 192.847 41.5629 194.018 43.9032L195.806 43.0088C194.843 41.0825 194.312 38.1104 194.312 33.984H192.312ZM194.018 43.9032C194.628 45.1249 195.488 46.0807 196.606 46.723C197.717 47.3618 199.023 47.656 200.48 47.656V45.656C199.291 45.656 198.347 45.4169 197.602 44.989C196.864 44.5646 196.262 43.9204 195.806 43.0088L194.018 43.9032ZM200.48 47.656C203.141 47.656 205.425 46.9407 207.256 45.4469C209.078 43.961 210.361 41.778 211.168 38.9988L209.248 38.4412C208.519 40.9526 207.413 42.7377 205.992 43.8971C204.58 45.0486 202.768 45.656 200.48 45.656V47.656ZM210.044 39.7064L211.196 39.8984L211.524 37.9256L210.372 37.7336L210.044 39.7064ZM210.393 38.6568C209.628 41.5565 208.259 43.7475 206.319 45.2991L207.569 46.8609C209.896 44.9992 211.471 42.4115 212.327 39.1672L210.393 38.6568ZM206.312 45.3053C204.476 46.8039 201.589 47.64 197.472 47.64V49.64C201.803 49.64 205.231 48.7694 207.576 46.8547L206.312 45.3053ZM193.376 31.208H199.968V29.208H193.376V31.208ZM200.968 30.208V27.072H198.968V30.208H200.968ZM200.968 27.072C200.968 23.6298 200.762 21.1228 200.273 19.706L198.383 20.358C198.747 21.4159 198.968 23.6022 198.968 27.072H200.968ZM200.286 19.7447C200.052 18.9655 199.66 18.2871 199.052 17.8071C198.437 17.3217 197.693 17.112 196.896 17.112V19.112C197.336 19.112 197.617 19.2223 197.812 19.3769C198.015 19.5369 198.22 19.8185 198.37 20.3193L200.286 19.7447ZM196.896 17.112C196.094 17.112 195.355 17.3462 194.722 17.8286C194.102 18.3009 193.637 18.9694 193.292 19.7592L195.124 20.5608C195.376 19.9853 195.658 19.6297 195.934 19.4194C196.197 19.2191 196.503 19.112 196.896 19.112V17.112ZM193.286 19.7733C192.647 21.2977 192.376 23.7818 192.376 27.072H194.376C194.376 23.7915 194.66 21.6676 195.13 20.5467L193.286 19.7733ZM192.376 27.072V30.208H194.376V27.072H192.376ZM230.856 32.96V33.96H231.856V32.96H230.856ZM230.152 19.904L229.195 20.194L229.2 20.2116L229.206 20.2291L230.152 19.904ZM225.48 18.432L226.021 19.2732L226.028 19.2687L226.035 19.264L225.48 18.432ZM224.968 22.208L224.025 22.5408L224.26 23.208H224.968V22.208ZM226.568 22.208L227.502 21.852L227.257 21.208H226.568V22.208ZM225.48 28.736L226.123 29.5017L226.132 29.4943L226.141 29.4867L225.48 28.736ZM239.816 19.52L239.143 20.2592L239.151 20.267L239.16 20.2746L239.816 19.52ZM247.176 38.72L247.243 37.7222L246.236 37.6551L246.178 38.6618L247.176 38.72ZM248.136 38.784L249.135 38.8294L249.179 37.8513L248.203 37.7862L248.136 38.784ZM246.024 46.528L246.775 47.1881L246.024 46.528ZM231.112 43.904L232.084 43.6676L231.274 40.3402L230.166 43.5803L231.112 43.904ZM228.616 47.488L229.185 48.3102V48.3102L228.616 47.488ZM217.864 34.688L218.285 35.595L218.292 35.5917L217.864 34.688ZM226.76 45.12L225.811 45.4362L225.821 45.4641L225.832 45.4914L226.76 45.12ZM229.96 44.48L229.08 44.0059L229.076 44.0123L229.073 44.0186L229.96 44.48ZM230.856 33.984H231.856V32.984H230.856V33.984ZM229 33.96H230.856V31.96H229V33.96ZM231.856 32.96V28.032H229.856V32.96H231.856ZM231.856 28.032C231.856 24.0003 231.629 21.126 231.098 19.5789L229.206 20.2291C229.613 21.4127 229.856 23.9571 229.856 28.032H231.856ZM231.109 19.614C230.857 18.7825 230.45 18.0612 229.828 17.5486C229.195 17.0261 228.426 16.792 227.592 16.792V18.792C228.038 18.792 228.336 18.9099 228.556 19.0914C228.788 19.2828 229.02 19.6175 229.195 20.194L231.109 19.614ZM227.592 16.792C226.626 16.792 225.729 17.0639 224.925 17.5999L226.035 19.264C226.511 18.9467 227.022 18.792 227.592 18.792V16.792ZM224.939 17.5908C224.048 18.1636 223.584 19.0392 223.584 20.096H225.584C225.584 19.7021 225.717 19.4684 226.021 19.2732L224.939 17.5908ZM223.584 20.096C223.584 20.9054 223.736 21.722 224.025 22.5408L225.911 21.8752C225.688 21.2433 225.584 20.6519 225.584 20.096H223.584ZM224.968 23.208H226.568V21.208H224.968V23.208ZM225.634 22.564C225.92 23.3153 226.08 24.2753 226.08 25.472H228.08C228.08 24.1087 227.899 22.8927 227.502 21.852L225.634 22.564ZM226.08 25.472C226.08 26.3779 225.706 27.2053 224.819 27.9853L226.141 29.4867C227.388 28.3894 228.08 27.0408 228.08 25.472H226.08ZM224.837 27.9703C223.979 28.6907 222.875 29.08 221.448 29.08V31.08C223.264 31.08 224.848 30.5733 226.123 29.5017L224.837 27.9703ZM221.448 29.08C219.759 29.08 218.677 28.672 218.014 28.0325C217.358 27.3993 216.944 26.3753 216.944 24.768H214.944C214.944 26.702 215.447 28.334 216.626 29.4715C217.798 30.6027 219.468 31.08 221.448 31.08V29.08ZM216.944 24.768C216.944 22.492 217.877 20.855 219.795 19.7258C221.796 18.5482 224.927 17.896 229.32 17.896V15.896C224.796 15.896 221.238 16.5558 218.781 18.0022C216.241 19.497 214.944 21.796 214.944 24.768H216.944ZM229.32 17.896C234.354 17.896 237.517 18.778 239.143 20.2592L240.489 18.7808C238.275 16.7634 234.44 15.896 229.32 15.896V17.896ZM239.16 20.2746C240.784 21.6871 241.76 24.4635 241.76 28.992H243.76C243.76 24.3045 242.773 20.7662 240.472 18.7654L239.16 20.2746ZM241.76 28.992V41.984H243.76V28.992H241.76ZM241.76 41.984C241.76 43.1535 241.917 44.1902 242.351 44.9671C242.576 45.3706 242.884 45.719 243.291 45.9624C243.699 46.2065 244.153 46.312 244.616 46.312V44.312C244.461 44.312 244.373 44.2789 244.317 44.2456C244.26 44.2116 244.182 44.144 244.097 43.9929C243.912 43.6605 243.76 43.0332 243.76 41.984H241.76ZM244.616 46.312C245.983 46.312 246.805 45.2384 247.276 44.026C247.76 42.7793 248.045 41.0058 248.174 38.7782L246.178 38.6618C246.051 40.8288 245.781 42.3513 245.412 43.302C245.029 44.2869 244.7 44.312 244.616 44.312V46.312ZM247.109 39.7178L248.069 39.7818L248.203 37.7862L247.243 37.7222L247.109 39.7178ZM247.137 38.7386C246.968 42.4583 246.269 44.7339 245.273 45.8679L246.775 47.1881C248.253 45.5061 248.963 42.619 249.135 38.8294L247.137 38.7386ZM245.273 45.8679C244.304 46.9704 242.618 47.64 239.944 47.64V49.64C242.902 49.64 245.269 48.9016 246.775 47.1881L245.273 45.8679ZM239.944 47.64C237.469 47.64 235.638 47.2554 234.369 46.5747C233.139 45.9154 232.398 44.9615 232.084 43.6676L230.14 44.1404C230.594 46.0039 231.709 47.418 233.423 48.3373C235.098 49.2352 237.299 49.64 239.944 49.64V47.64ZM230.166 43.5803C229.662 45.0545 228.938 46.0488 228.047 46.6658L229.185 48.3102C230.513 47.3912 231.453 45.9962 232.058 44.2277L230.166 43.5803ZM228.047 46.6658C227.176 47.2685 225.791 47.64 223.752 47.64V49.64C225.98 49.64 227.837 49.2435 229.185 48.3102L228.047 46.6658ZM223.752 47.64C220.705 47.64 218.606 47.0132 217.281 45.9298C215.994 44.8779 215.28 43.264 215.28 40.896H213.28C213.28 43.6906 214.144 45.9488 216.015 47.4782C217.847 48.9761 220.484 49.64 223.752 49.64V47.64ZM215.28 40.896C215.28 39.5106 215.553 38.4191 216.042 37.572C216.526 36.7337 217.257 36.0723 218.285 35.595L217.443 33.781C216.082 34.413 215.021 35.3409 214.31 36.572C213.604 37.7943 213.28 39.252 213.28 40.896H215.28ZM218.292 35.5917C220.52 34.5365 224.051 33.96 229 33.96V31.96C223.965 31.96 220.072 32.5354 217.436 33.7843L218.292 35.5917ZM225.44 40.832C225.44 41.9543 225.467 42.8935 225.523 43.6424C225.577 44.3688 225.663 44.9912 225.811 45.4362L227.709 44.8038C227.644 44.6088 227.57 44.1966 227.517 43.4936C227.466 42.8132 227.44 41.9283 227.44 40.832H225.44ZM225.832 45.4914C226.013 45.9444 226.292 46.3576 226.707 46.6537C227.127 46.9537 227.611 47.08 228.104 47.08V45.08C227.957 45.08 227.897 45.0463 227.869 45.0263C227.836 45.0024 227.763 44.9356 227.688 44.7486L225.832 45.4914ZM228.104 47.08C229.382 47.08 230.255 46.0793 230.847 44.9414L229.073 44.0186C228.555 45.014 228.191 45.08 228.104 45.08V47.08ZM230.84 44.9541C231.547 43.6423 231.856 41.9422 231.856 39.936H229.856C229.856 41.7698 229.568 43.099 229.08 44.0059L230.84 44.9541ZM231.856 39.936V33.984H229.856V39.936H231.856ZM230.856 32.984H230.408V34.984H230.856V32.984ZM230.408 32.984C228.803 32.984 227.479 33.595 226.606 34.8769C225.779 36.0901 225.44 37.7843 225.44 39.808H227.44C227.44 37.949 227.762 36.7312 228.258 36.0031C228.708 35.3437 229.367 34.984 230.408 34.984V32.984ZM225.44 39.808V40.832H227.44V39.808H225.44ZM248.509 -3.8147e-06V-1H247.509V-3.8147e-06H248.509ZM264.189 -3.8147e-06H265.189V-1H264.189V-3.8147e-06ZM264.189 46.848H263.189V47.848H264.189V46.848ZM267.773 46.848H268.773V45.848H267.773V46.848ZM267.773 48V49H268.773V48H267.773ZM248.765 48H247.765V49H248.765V48ZM248.765 46.848V45.848H247.765V46.848H248.765ZM252.285 46.848V47.848H253.285V46.848H252.285ZM252.285 1.152H253.285V0.151997H252.285V1.152ZM248.509 1.152H247.509V2.152H248.509V1.152ZM248.509 0.999996H264.189V-1H248.509V0.999996ZM263.189 -3.8147e-06V46.848H265.189V-3.8147e-06H263.189ZM264.189 47.848H267.773V45.848H264.189V47.848ZM266.773 46.848V48H268.773V46.848H266.773ZM267.773 47H248.765V49H267.773V47ZM249.765 48V46.848H247.765V48H249.765ZM248.765 47.848H252.285V45.848H248.765V47.848ZM253.285 46.848V1.152H251.285V46.848H253.285ZM252.285 0.151997H248.509V2.152H252.285V0.151997ZM249.509 1.152V-3.8147e-06H247.509V1.152H249.509ZM272.215 18.688H273.215V17.688H272.215V18.688ZM268.695 18.688H267.695V19.688H268.695V18.688ZM268.695 17.536V16.536H267.695V17.536H268.695ZM272.215 17.536V18.536H273.215V17.536H272.215ZM272.215 9.28L271.975 8.30925L271.215 8.49718V9.28H272.215ZM284.119 6.336H285.119V5.05856L283.879 5.36525L284.119 6.336ZM284.119 17.536H283.119V18.536H284.119V17.536ZM292.439 17.536H293.439V16.536H292.439V17.536ZM292.439 18.688V19.688H293.439V18.688H292.439ZM284.119 18.688V17.688H283.119V18.688H284.119ZM284.695 44.672L283.769 45.0506L283.777 45.0684L283.785 45.0858L284.695 44.672ZM290.583 44.16L289.789 43.5516L289.783 43.56L289.777 43.5686L290.583 44.16ZM292.503 38.912L292.62 37.9188L291.643 37.8039L291.512 38.7786L292.503 38.912ZM293.591 39.04L294.584 39.1552L294.699 38.1635L293.708 38.0468L293.591 39.04ZM290.775 46.08L291.518 46.749L291.526 46.7398L290.775 46.08ZM275.031 46.528L275.631 45.728L275.031 46.528ZM273.215 38.848V18.688H271.215V38.848H273.215ZM272.215 17.688H268.695V19.688H272.215V17.688ZM269.695 18.688V17.536H267.695V18.688H269.695ZM268.695 18.536H272.215V16.536H268.695V18.536ZM273.215 17.536V9.28H271.215V17.536H273.215ZM272.455 10.2508L284.359 7.30675L283.879 5.36525L271.975 8.30925L272.455 10.2508ZM283.119 6.336V17.536H285.119V6.336H283.119ZM284.119 18.536H292.439V16.536H284.119V18.536ZM291.439 17.536V18.688H293.439V17.536H291.439ZM292.439 17.688H284.119V19.688H292.439V17.688ZM283.119 18.688V40.256H285.119V18.688H283.119ZM283.119 40.256C283.119 42.2893 283.309 43.9241 283.769 45.0506L285.621 44.2934C285.313 43.5426 285.119 42.2334 285.119 40.256H283.119ZM283.785 45.0858C284.082 45.7391 284.546 46.2593 285.173 46.6042C285.787 46.9416 286.498 47.08 287.255 47.08V45.08C286.732 45.08 286.377 44.9837 286.137 44.8518C285.911 44.7274 285.735 44.5435 285.605 44.2582L283.785 45.0858ZM287.255 47.08C288.93 47.08 290.313 46.2194 291.389 44.7514L289.777 43.5686C288.976 44.6606 288.14 45.08 287.255 45.08V47.08ZM291.377 44.7684C292.497 43.3066 293.181 41.3731 293.494 39.0454L291.512 38.7786C291.228 40.8883 290.631 42.4534 289.789 43.5516L291.377 44.7684ZM292.386 39.9052L293.474 40.0331L293.708 38.0468L292.62 37.9188L292.386 39.9052ZM292.598 38.9248C292.273 41.722 291.393 43.8606 290.024 45.4202L291.526 46.7398C293.229 44.8008 294.226 42.246 294.584 39.1552L292.598 38.9248ZM290.032 45.411C288.768 46.8153 286.57 47.64 283.159 47.64V49.64C286.831 49.64 289.71 48.758 291.518 46.749L290.032 45.411ZM283.159 47.64C279.73 47.64 277.267 46.955 275.631 45.728L274.431 47.328C276.55 48.917 279.506 49.64 283.159 49.64V47.64ZM275.631 45.728C274.124 44.5978 273.215 42.4309 273.215 38.848H271.215C271.215 42.6891 272.183 45.6423 274.431 47.328L275.631 45.728ZM294.203 -3.8147e-06V-1H293.203V-3.8147e-06H294.203ZM309.626 -3.8147e-06H310.626V-1H309.626V-3.8147e-06ZM309.626 23.424H308.626L310.571 23.7525L309.626 23.424ZM312.763 18.688L312.116 17.9255L312.763 18.688ZM329.082 46.848H328.082V47.848H329.082V46.848ZM332.667 46.848H333.667V45.848H332.667V46.848ZM332.667 48V49H333.667V48H332.667ZM314.555 48H313.555V49H314.555V48ZM314.555 46.848V45.848H313.555V46.848H314.555ZM317.178 46.848V47.848H318.178V46.848H317.178ZM316.667 21.12L315.753 21.5261L315.757 21.536L315.762 21.5458L316.667 21.12ZM311.163 22.656L310.303 22.1445L310.299 22.1521L310.294 22.1599L311.163 22.656ZM309.626 46.848H308.626V47.848H309.626V46.848ZM312.379 46.848H313.379V45.848H312.379V46.848ZM312.379 48V49H313.379V48H312.379ZM294.203 48H293.203V49H294.203V48ZM294.203 46.848V45.848H293.203V46.848H294.203ZM297.723 46.848V47.848H298.723V46.848H297.723ZM297.723 1.152H298.723V0.151997H297.723V1.152ZM294.203 1.152H293.203V2.152H294.203V1.152ZM294.203 0.999996H309.626V-1H294.203V0.999996ZM308.626 -3.8147e-06V23.424H310.626V-3.8147e-06H308.626ZM310.571 23.7525C311.203 21.9369 312.154 20.5157 313.409 19.4505L312.116 17.9255C310.555 19.2496 309.416 20.9858 308.682 23.0955L310.571 23.7525ZM313.409 19.4505C314.561 18.4737 316.417 17.896 319.163 17.896V15.896C316.191 15.896 313.78 16.5129 312.116 17.9255L313.409 19.4505ZM319.163 17.896C322.295 17.896 324.466 18.7363 325.87 20.2483C327.286 21.7743 328.082 24.1577 328.082 27.584H330.082C330.082 23.8849 329.226 20.9243 327.335 18.8877C325.432 16.837 322.643 15.896 319.163 15.896V17.896ZM328.082 27.584V46.848H330.082V27.584H328.082ZM329.082 47.848H332.667V45.848H329.082V47.848ZM331.667 46.848V48H333.667V46.848H331.667ZM332.667 47H314.555V49H332.667V47ZM315.555 48V46.848H313.555V48H315.555ZM314.555 47.848H317.178V45.848H314.555V47.848ZM318.178 46.848V26.048H316.178V46.848H318.178ZM318.178 26.048C318.178 24.75 318.135 23.6616 318.045 22.7927C317.958 21.9522 317.818 21.218 317.571 20.6942L315.762 21.5458C315.857 21.7474 315.973 22.1971 316.056 22.9993C316.136 23.7731 316.178 24.786 316.178 26.048H318.178ZM317.58 20.7139C317.341 20.1757 316.979 19.7197 316.474 19.4064C315.973 19.0957 315.402 18.968 314.81 18.968V20.968C315.115 20.968 315.301 21.0323 315.419 21.1056C315.533 21.1763 315.651 21.2963 315.753 21.5261L317.58 20.7139ZM314.81 18.968C312.931 18.968 311.448 20.221 310.303 22.1445L312.022 23.1675C313.01 21.507 313.96 20.968 314.81 20.968V18.968ZM310.294 22.1599C309.165 24.1352 308.626 26.4914 308.626 29.184H310.626C310.626 26.7566 311.112 24.7608 312.031 23.1521L310.294 22.1599ZM308.626 29.184V46.848H310.626V29.184H308.626ZM309.626 47.848H312.379V45.848H309.626V47.848ZM311.379 46.848V48H313.379V46.848H311.379ZM312.379 47H294.203V49H312.379V47ZM295.203 48V46.848H293.203V48H295.203ZM294.203 47.848H297.723V45.848H294.203V47.848ZM298.723 46.848V1.152H296.723V46.848H298.723ZM297.723 0.151997H294.203V2.152H297.723V0.151997ZM295.203 1.152V-3.8147e-06H293.203V1.152H295.203Z" fill="black" mask="url(#path-1-outside-1_51_145)"/>
</svg>
